# xmcd
#
# Track frame offsets:
#	150
#	17420
#	36272
#	49547
#	69365
#	84895
#	101890
#	123680
#	137860
#	153565
#	174017
#	192917
#
# Disc length: 2772 seconds
#
# Revision: 3
# Processed by: cddbd v1.5.2PL0 Copyright (c) Steve Scherf et al.
# Submitted via: audiograbber 1.83.01
#
DISCID=960ad20c
DTITLE=Pinetop Perkins - After Hours
DYEAR=1988
DGENRE=Blues
TTITLE0=Got My Mojo Workin'
TTITLE1=After Hours
TTITLE2=The Hucklebuck
TTITLE3=Sit In The Easy Chair
TTITLE4=Thinks Like A Million
TTITLE5=Chicken Shack
TTITLE6=I'm Your Hoochie Coochie Man
TTITLE7=Yancey Special
TTITLE8=Every Day I Have The Blues
TTITLE9=Anna Lee
TTITLE10=You Don't Have To Go
TTITLE11=Pinetop's Boogie Woogie
EXTD=
EXTT0=
EXTT1=
EXTT2=
EXTT3=
EXTT4=
EXTT5=
EXTT6=
EXTT7=
EXTT8=
EXTT9=
EXTT10=
EXTT11=
PLAYORDER=
